<svg width="25" height="24" viewBox="0 0 25 24" fill="none" xmlns="http://www.w3.org/2000/svg">
<g clip-path="url(#clip0_12_72)">
<path d="M11.5326 15C13.4836 15 15.0652 13.6569 15.0652 12C15.0652 10.3431 13.4836 9 11.5326 9C9.5816 9 8 10.3431 8 12C8 13.6569 9.5816 15 11.5326 15Z" stroke="black" stroke-width="2" stroke-linecap="round" stroke-linejoin="round"/>
<path d="M19.2364 14.7273C19.0972 15.0015 19.0557 15.3056 19.1172 15.6005C19.1787 15.8954 19.3403 16.1676 19.5814 16.3818L19.6441 16.4364C19.8385 16.6052 19.9927 16.8057 20.0979 17.0265C20.2032 17.2472 20.2573 17.4838 20.2573 17.7227C20.2573 17.9617 20.2032 18.1983 20.0979 18.419C19.9927 18.6397 19.8385 18.8402 19.6441 19.0091C19.4499 19.1781 19.2193 19.3122 18.9655 19.4037C18.7116 19.4952 18.4395 19.5423 18.1648 19.5423C17.89 19.5423 17.6179 19.4952 17.3641 19.4037C17.1102 19.3122 16.8796 19.1781 16.6855 19.0091L16.6227 18.9545C16.3763 18.745 16.0634 18.6044 15.7243 18.5509C15.3851 18.4974 15.0353 18.5335 14.72 18.6545C14.4108 18.7698 14.1471 18.9611 13.9613 19.205C13.7756 19.4489 13.6759 19.7347 13.6745 20.0273V20.1818C13.6745 20.664 13.4543 21.1265 13.0621 21.4675C12.67 21.8084 12.1382 22 11.5836 22C11.0291 22 10.4973 21.8084 10.1051 21.4675C9.71302 21.1265 9.49273 20.664 9.49273 20.1818V20.1C9.48463 19.7991 9.37262 19.5073 9.17126 19.2625C8.9699 19.0176 8.6885 18.8312 8.36364 18.7273C8.04831 18.6063 7.69852 18.5702 7.35938 18.6236C7.02024 18.6771 6.7073 18.8177 6.46091 19.0273L6.39818 19.0818C6.20399 19.2509 5.97339 19.385 5.71956 19.4765C5.46572 19.568 5.19364 19.6151 4.91886 19.6151C4.64409 19.6151 4.372 19.568 4.11817 19.4765C3.86434 19.385 3.63373 19.2509 3.43955 19.0818C3.24514 18.913 3.09092 18.7124 2.98569 18.4917C2.88047 18.271 2.82631 18.0344 2.82631 17.7955C2.82631 17.5565 2.88047 17.3199 2.98569 17.0992C3.09092 16.8785 3.24514 16.678 3.43955 16.5091L3.50227 16.4545C3.74329 16.2403 3.90497 15.9682 3.96646 15.6733C4.02795 15.3784 3.98644 15.0742 3.84727 14.8C3.71475 14.5311 3.4947 14.3018 3.21421 14.1403C2.93373 13.9788 2.60505 13.8921 2.26864 13.8909H2.09091C1.53637 13.8909 1.00453 13.6994 0.612413 13.3584C0.220292 13.0174 0 12.5549 0 12.0727C0 11.5905 0.220292 11.1281 0.612413 10.7871C1.00453 10.4461 1.53637 10.2545 2.09091 10.2545H2.185C2.53104 10.2475 2.86664 10.1501 3.14818 9.97501C3.42971 9.79991 3.64416 9.55521 3.76364 9.27273C3.9028 8.99853 3.94432 8.69437 3.88282 8.39947C3.82133 8.10456 3.65965 7.83244 3.41864 7.61818L3.35591 7.56364C3.1615 7.39478 3.00728 7.19425 2.90206 6.97353C2.79683 6.7528 2.74267 6.51621 2.74267 6.27727C2.74267 6.03834 2.79683 5.80174 2.90206 5.58102C3.00728 5.36029 3.1615 5.15977 3.35591 4.99091C3.5501 4.82186 3.7807 4.68775 4.03453 4.59626C4.28837 4.50476 4.56045 4.45766 4.83523 4.45766C5.11 4.45766 5.38209 4.50476 5.63592 4.59626C5.88975 4.68775 6.12036 4.82186 6.31455 4.99091L6.37727 5.04545C6.62366 5.25503 6.93661 5.39562 7.27575 5.4491C7.61489 5.50257 7.96467 5.46647 8.28 5.34545H8.36364C8.67285 5.23022 8.93656 5.03887 9.12231 4.79497C9.30807 4.55107 9.40775 4.26526 9.40909 3.97273V3.81818C9.40909 3.33597 9.62938 2.87351 10.0215 2.53253C10.4136 2.19156 10.9455 2 11.5 2C12.0545 2 12.5864 2.19156 12.9785 2.53253C13.3706 2.87351 13.5909 3.33597 13.5909 3.81818V3.9C13.5923 4.19253 13.6919 4.47834 13.8777 4.72224C14.0634 4.96614 14.3271 5.15749 14.6364 5.27273C14.9517 5.39374 15.3015 5.42984 15.6406 5.37637C15.9798 5.3229 16.2927 5.18231 16.5391 4.97273L16.6018 4.91818C16.796 4.74913 17.0266 4.61503 17.2804 4.52353C17.5343 4.43203 17.8064 4.38493 18.0811 4.38493C18.3559 4.38493 18.628 4.43203 18.8818 4.52353C19.1357 4.61503 19.3663 4.74913 19.5605 4.91818C19.7549 5.08704 19.9091 5.28757 20.0143 5.50829C20.1195 5.72901 20.1737 5.96561 20.1737 6.20455C20.1737 6.44348 20.1195 6.68008 20.0143 6.9008C19.9091 7.12152 19.7549 7.32205 19.5605 7.49091L19.4977 7.54545C19.2567 7.75971 19.095 8.03183 19.0335 8.32674C18.972 8.62164 19.0136 8.9258 19.1527 9.2V9.27273C19.2853 9.54161 19.5053 9.77092 19.7858 9.93245C20.0663 10.094 20.3949 10.1807 20.7314 10.1818H20.9091C21.4636 10.1818 21.9955 10.3734 22.3876 10.7144C22.7797 11.0553 23 11.5178 23 12C23 12.4822 22.7797 12.9447 22.3876 13.2856C21.9955 13.6266 21.4636 13.8182 20.9091 13.8182H20.815C20.4786 13.8193 20.1499 13.906 19.8694 14.0676C19.5889 14.2291 19.3689 14.4584 19.2364 14.7273Z" stroke="black" stroke-width="2" stroke-linecap="round" stroke-linejoin="round"/>
</g>
<defs>
<clipPath id="clip0_12_72">
<rect width="25" height="24" fill="white"/>
</clipPath>
</defs>
</svg>
