<svg width="40" height="38" viewBox="0 0 40 38" fill="none" xmlns="http://www.w3.org/2000/svg">
<g clip-path="url(#clip0_12_33)">
<path d="M28.271 33.2499V30.0833C28.271 28.4036 27.5702 26.7927 26.3227 25.6049C25.0752 24.4172 23.3832 23.75 21.619 23.75H8.31504C6.55082 23.75 4.85886 24.4172 3.61137 25.6049C2.36388 26.7927 1.66305 28.4036 1.66305 30.0833V33.2499" stroke="black" stroke-width="2" stroke-linecap="round" stroke-linejoin="round"/>
<path d="M14.967 17.4167C18.6408 17.4167 21.619 14.5811 21.619 11.0833C21.619 7.58554 18.6408 4.75002 14.967 4.75002C11.2932 4.75002 8.31499 7.58554 8.31499 11.0833C8.31499 14.5811 11.2932 17.4167 14.967 17.4167Z" stroke="black" stroke-width="2" stroke-linecap="round" stroke-linejoin="round"/>
<path d="M38.249 33.2499V30.0833C38.2479 28.68 37.7573 27.3168 36.8543 26.2078C35.9513 25.0987 34.687 24.3066 33.26 23.9558" stroke="black" stroke-width="2" stroke-linecap="round" stroke-linejoin="round"/>
<path d="M26.608 4.95585C28.0389 5.30466 29.3071 6.09696 30.2128 7.20784C31.1185 8.31872 31.6101 9.685 31.6101 11.0913C31.6101 12.4975 31.1185 13.8638 30.2128 14.9747C29.3071 16.0856 28.0389 16.8779 26.608 17.2267" stroke="black" stroke-width="2" stroke-linecap="round" stroke-linejoin="round"/>
</g>
<defs>
<clipPath id="clip0_12_33">
<rect width="39.0779" height="37.2059" fill="white" transform="scale(1.02134)"/>
</clipPath>
</defs>
</svg>
